{
	"patcher" : 	{
		"fileversion" : 1,
		"appversion" : 		{
			"major" : 8,
			"minor" : 0,
			"revision" : 3,
			"architecture" : "x64",
			"modernui" : 1
		}
,
		"classnamespace" : "box",
		"rect" : [ 427.0, 365.0, 967.0, 520.0 ],
		"bglocked" : 0,
		"openinpresentation" : 1,
		"default_fontsize" : 12.0,
		"default_fontface" : 0,
		"default_fontname" : "Arial",
		"gridonopen" : 1,
		"gridsize" : [ 15.0, 15.0 ],
		"gridsnaponopen" : 1,
		"objectsnaponopen" : 1,
		"statusbarvisible" : 2,
		"toolbarvisible" : 1,
		"lefttoolbarpinned" : 0,
		"toptoolbarpinned" : 0,
		"righttoolbarpinned" : 0,
		"bottomtoolbarpinned" : 0,
		"toolbars_unpinned_last_save" : 0,
		"tallnewobj" : 0,
		"boxanimatetime" : 200,
		"enablehscroll" : 1,
		"enablevscroll" : 1,
		"devicewidth" : 0.0,
		"description" : "",
		"digest" : "",
		"tags" : "",
		"style" : "",
		"subpatcher_template" : "",
		"boxes" : [ 			{
				"box" : 				{
					"id" : "obj-22",
					"maxclass" : "newobj",
					"numinlets" : 1,
					"numoutlets" : 3,
					"outlettype" : [ "", "int", "int" ],
					"patching_rect" : [ 525.9285888671875, 296.0, 58.0, 22.0 ],
					"text" : "change 0"
				}

			}
, 			{
				"box" : 				{
					"id" : "obj-4",
					"linecount" : 3,
					"maxclass" : "newobj",
					"numinlets" : 4,
					"numoutlets" : 4,
					"outlettype" : [ "", "", "", "" ],
					"patching_rect" : [ 254.0, 86.0, 158.0, 49.0 ],
					"text" : "route /stream/userpose/pos /stream/userpose/rot /stream/userpose/teleport"
				}

			}
, 			{
				"box" : 				{
					"color" : [ 0.211764705882353, 0.568627450980392, 0.588235294117647, 1.0 ],
					"id" : "obj-2",
					"maxclass" : "newobj",
					"numinlets" : 0,
					"numoutlets" : 1,
					"outlettype" : [ "" ],
					"patching_rect" : [ 254.0, 50.0, 104.0, 22.0 ],
					"text" : "receive osc_in_all"
				}

			}
, 			{
				"box" : 				{
					"fontname" : "Poppins",
					"id" : "obj-34",
					"maxclass" : "comment",
					"numinlets" : 1,
					"numoutlets" : 0,
					"patching_rect" : [ 36.0, 321.0, 65.0, 28.0 ],
					"presentation" : 1,
					"presentation_rect" : [ 40.778129577636719, 49.124763488769531, 60.085105895996094, 28.0 ],
					"text" : "Teleport",
					"textcolor" : [ 0.583999991416931, 0.583999991416931, 0.583999991416931, 1.0 ],
					"textjustification" : 1
				}

			}
, 			{
				"box" : 				{
					"fontname" : "Poppins",
					"id" : "obj-32",
					"maxclass" : "comment",
					"numinlets" : 1,
					"numoutlets" : 0,
					"patching_rect" : [ 36.0, 294.0, 65.0, 28.0 ],
					"presentation" : 1,
					"presentation_rect" : [ 344.271148681640625, 48.124759674072266, 42.0, 28.0 ],
					"text" : "Pos",
					"textcolor" : [ 0.583999991416931, 0.583999991416931, 0.583999991416931, 1.0 ],
					"textjustification" : 1
				}

			}
, 			{
				"box" : 				{
					"fontname" : "Poppins",
					"id" : "obj-28",
					"maxclass" : "comment",
					"numinlets" : 1,
					"numoutlets" : 0,
					"patching_rect" : [ 36.0, 264.0, 65.0, 28.0 ],
					"presentation" : 1,
					"presentation_rect" : [ 166.76409912109375, 49.124763488769531, 42.0, 28.0 ],
					"text" : "Rot",
					"textcolor" : [ 0.583999991416931, 0.583999991416931, 0.583999991416931, 1.0 ],
					"textjustification" : 1
				}

			}
, 			{
				"box" : 				{
					"bgcolor" : [ 0.2, 0.2, 0.2, 0.0 ],
					"blinkcolor" : [ 0.313725490196078, 0.717647058823529, 0.537254901960784, 1.0 ],
					"blinktime" : 100,
					"id" : "obj-24",
					"maxclass" : "button",
					"numinlets" : 1,
					"numoutlets" : 1,
					"outlettype" : [ "bang" ],
					"outlinecolor" : [ 0.772549019607843, 0.768627450980392, 0.768627450980392, 1.0 ],
					"parameter_enable" : 0,
					"patching_rect" : [ 545.4285888671875, 346.0, 42.0, 42.0 ],
					"presentation" : 1,
					"presentation_rect" : [ 50.76409912109375, 67.531349182128906, 38.948295593261719, 38.948295593261719 ]
				}

			}
, 			{
				"box" : 				{
					"autofit" : 1,
					"forceaspect" : 1,
					"id" : "obj-30",
					"maxclass" : "fpic",
					"numinlets" : 1,
					"numoutlets" : 1,
					"outlettype" : [ "jit_matrix" ],
					"patching_rect" : [ 128.131576538085938, 92.0, 100.0, 90.109890109890117 ],
					"pic" : "head_pos.png",
					"presentation" : 1,
					"presentation_rect" : [ 346.208343505859375, 71.124755859375, 38.12554931640625, 34.354890592805631 ]
				}

			}
, 			{
				"box" : 				{
					"autofit" : 1,
					"forceaspect" : 1,
					"id" : "obj-29",
					"maxclass" : "fpic",
					"numinlets" : 1,
					"numoutlets" : 1,
					"outlettype" : [ "jit_matrix" ],
					"patching_rect" : [ 128.131576538085938, 187.890106201171875, 100.0, 90.109890109890117 ],
					"pic" : "head_rot.png",
					"presentation" : 1,
					"presentation_rect" : [ 168.701324462890625, 72.124755859375, 38.12554931640625, 34.354890592805631 ]
				}

			}
, 			{
				"box" : 				{
					"id" : "obj-27",
					"maxclass" : "newobj",
					"numinlets" : 1,
					"numoutlets" : 1,
					"outlettype" : [ "" ],
					"patching_rect" : [ 525.9285888671875, 197.0, 141.0, 22.0 ],
					"text" : "prepend mapListenerRot"
				}

			}
, 			{
				"box" : 				{
					"id" : "obj-26",
					"maxclass" : "newobj",
					"numinlets" : 1,
					"numoutlets" : 1,
					"outlettype" : [ "" ],
					"patching_rect" : [ 525.9285888671875, 161.0, 143.0, 22.0 ],
					"text" : "prepend mapListenerPos"
				}

			}
, 			{
				"box" : 				{
					"comment" : "",
					"id" : "obj-25",
					"index" : 0,
					"maxclass" : "outlet",
					"numinlets" : 1,
					"numoutlets" : 0,
					"patching_rect" : [ 525.9285888671875, 231.0, 30.0, 30.0 ]
				}

			}
, 			{
				"box" : 				{
					"fontname" : "Poppins",
					"id" : "obj-16",
					"maxclass" : "comment",
					"numinlets" : 1,
					"numoutlets" : 0,
					"patching_rect" : [ 36.0, 237.0, 64.0, 28.0 ],
					"presentation" : 1,
					"presentation_rect" : [ 211.956451416015625, 87.531349182128906, 42.0, 28.0 ],
					"text" : "Roll:",
					"textcolor" : [ 0.583999991416931, 0.583999991416931, 0.583999991416931, 1.0 ],
					"textjustification" : 2
				}

			}
, 			{
				"box" : 				{
					"fontname" : "Poppins",
					"id" : "obj-17",
					"maxclass" : "comment",
					"numinlets" : 1,
					"numoutlets" : 0,
					"patching_rect" : [ 36.0, 207.0, 64.0, 28.0 ],
					"presentation" : 1,
					"presentation_rect" : [ 211.956451416015625, 65.531349182128906, 42.0, 28.0 ],
					"text" : "Yaw:",
					"textcolor" : [ 0.583999991416931, 0.583999991416931, 0.583999991416931, 1.0 ],
					"textjustification" : 2
				}

			}
, 			{
				"box" : 				{
					"fontname" : "Poppins",
					"id" : "obj-18",
					"maxclass" : "comment",
					"numinlets" : 1,
					"numoutlets" : 0,
					"patching_rect" : [ 36.0, 181.0, 64.0, 28.0 ],
					"presentation" : 1,
					"presentation_rect" : [ 211.956451416015625, 43.531352996826172, 42.0, 28.0 ],
					"text" : "Pitch:",
					"textcolor" : [ 0.583999991416931, 0.583999991416931, 0.583999991416931, 1.0 ],
					"textjustification" : 2
				}

			}
, 			{
				"box" : 				{
					"bgcolor" : [ 0.219607843137255, 0.219607843137255, 0.219607843137255, 0.0 ],
					"fontname" : "Poppins",
					"fontsize" : 12.0,
					"format" : 6,
					"id" : "obj-9",
					"maxclass" : "flonum",
					"numdecimalplaces" : 1,
					"numinlets" : 1,
					"numoutlets" : 2,
					"outlettype" : [ "", "bang" ],
					"parameter_enable" : 0,
					"patching_rect" : [ 423.0, 352.0, 53.0, 30.0 ],
					"presentation" : 1,
					"presentation_rect" : [ 254.258819580078125, 86.531349182128906, 53.0, 30.0 ],
					"triangle" : 0,
					"tricolor" : [ 0.458823529411765, 0.611764705882353, 0.682352941176471, 1.0 ],
					"triscale" : 1.5
				}

			}
, 			{
				"box" : 				{
					"bgcolor" : [ 0.219607843137255, 0.219607843137255, 0.219607843137255, 0.0 ],
					"fontname" : "Poppins",
					"fontsize" : 12.0,
					"format" : 6,
					"id" : "obj-11",
					"maxclass" : "flonum",
					"numdecimalplaces" : 1,
					"numinlets" : 1,
					"numoutlets" : 2,
					"outlettype" : [ "", "bang" ],
					"parameter_enable" : 0,
					"patching_rect" : [ 399.0, 315.0, 53.0, 30.0 ],
					"presentation" : 1,
					"presentation_rect" : [ 254.258819580078125, 64.531349182128906, 53.0, 30.0 ],
					"triangle" : 0,
					"tricolor" : [ 0.458823529411765, 0.611764705882353, 0.682352941176471, 1.0 ],
					"triscale" : 1.5
				}

			}
, 			{
				"box" : 				{
					"bgcolor" : [ 0.219607843137255, 0.219607843137255, 0.219607843137255, 0.0 ],
					"fontname" : "Poppins",
					"fontsize" : 12.0,
					"format" : 6,
					"id" : "obj-15",
					"maxclass" : "flonum",
					"numdecimalplaces" : 1,
					"numinlets" : 1,
					"numoutlets" : 2,
					"outlettype" : [ "", "bang" ],
					"parameter_enable" : 0,
					"patching_rect" : [ 375.0, 280.0, 53.0, 30.0 ],
					"presentation" : 1,
					"presentation_rect" : [ 254.258819580078125, 42.531352996826172, 53.0, 30.0 ],
					"triangle" : 0,
					"tricolor" : [ 0.458823529411765, 0.611764705882353, 0.682352941176471, 1.0 ],
					"triscale" : 1.5
				}

			}
, 			{
				"box" : 				{
					"fontface" : 1,
					"fontname" : "Poppins",
					"fontsize" : 15.0,
					"id" : "obj-3",
					"maxclass" : "comment",
					"numinlets" : 1,
					"numoutlets" : 0,
					"patching_rect" : [ 36.0, 50.0, 147.0, 33.0 ],
					"presentation" : 1,
					"presentation_rect" : [ 17.820686340332031, 12.0, 135.0, 33.0 ],
					"text" : "User Transform",
					"textcolor" : [ 0.996078431606293, 0.996078431606293, 0.996078431606293, 1.0 ]
				}

			}
, 			{
				"box" : 				{
					"bgcolor" : [ 0.219607843137255, 0.219607843137255, 0.219607843137255, 0.0 ],
					"fontname" : "Poppins",
					"id" : "obj-21",
					"maxclass" : "comment",
					"numinlets" : 1,
					"numoutlets" : 0,
					"patching_rect" : [ 36.0, 151.0, 59.0, 28.0 ],
					"presentation" : 1,
					"presentation_rect" : [ 386.119842529296875, 87.531349182128906, 25.080554962158203, 28.0 ],
					"text" : "Z:",
					"textcolor" : [ 0.583999991416931, 0.583999991416931, 0.583999991416931, 1.0 ],
					"textjustification" : 2
				}

			}
, 			{
				"box" : 				{
					"fontname" : "Poppins",
					"id" : "obj-20",
					"maxclass" : "comment",
					"numinlets" : 1,
					"numoutlets" : 0,
					"patching_rect" : [ 36.0, 121.0, 59.0, 28.0 ],
					"presentation" : 1,
					"presentation_rect" : [ 386.119842529296875, 65.531349182128906, 25.0, 28.0 ],
					"text" : "Y:",
					"textcolor" : [ 0.583999991416931, 0.583999991416931, 0.583999991416931, 1.0 ],
					"textjustification" : 2
				}

			}
, 			{
				"box" : 				{
					"fontname" : "Poppins",
					"id" : "obj-19",
					"maxclass" : "comment",
					"numinlets" : 1,
					"numoutlets" : 0,
					"patching_rect" : [ 36.0, 92.0, 59.0, 28.0 ],
					"presentation" : 1,
					"presentation_rect" : [ 386.119842529296875, 43.531352996826172, 25.0, 28.0 ],
					"text" : "X:",
					"textcolor" : [ 0.583999991416931, 0.583999991416931, 0.583999991416931, 1.0 ],
					"textjustification" : 2
				}

			}
, 			{
				"box" : 				{
					"id" : "obj-13",
					"maxclass" : "newobj",
					"numinlets" : 3,
					"numoutlets" : 3,
					"outlettype" : [ "", "", "" ],
					"patching_rect" : [ 254.0, 239.0, 67.0, 22.0 ],
					"text" : "bondo 3"
				}

			}
, 			{
				"box" : 				{
					"id" : "obj-14",
					"maxclass" : "newobj",
					"numinlets" : 1,
					"numoutlets" : 3,
					"outlettype" : [ "float", "float", "float" ],
					"patching_rect" : [ 254.0, 207.0, 67.0, 22.0 ],
					"text" : "unpack f f f"
				}

			}
, 			{
				"box" : 				{
					"bgcolor" : [ 0.219607843137255, 0.219607843137255, 0.219607843137255, 0.0 ],
					"fontname" : "Poppins",
					"fontsize" : 12.0,
					"format" : 6,
					"id" : "obj-12",
					"maxclass" : "flonum",
					"numdecimalplaces" : 1,
					"numinlets" : 1,
					"numoutlets" : 2,
					"outlettype" : [ "", "bang" ],
					"parameter_enable" : 0,
					"patching_rect" : [ 302.0, 368.0, 53.0, 30.0 ],
					"presentation" : 1,
					"presentation_rect" : [ 410.119842529296875, 86.531349182128906, 53.0, 30.0 ],
					"triangle" : 0,
					"tricolor" : [ 0.670588235294118, 0.67843137254902, 0.454901960784314, 1.0 ],
					"triscale" : 1.5
				}

			}
, 			{
				"box" : 				{
					"bgcolor" : [ 0.219607843137255, 0.219607843137255, 0.219607843137255, 0.0 ],
					"fontname" : "Poppins",
					"fontsize" : 12.0,
					"format" : 6,
					"id" : "obj-10",
					"maxclass" : "flonum",
					"numdecimalplaces" : 1,
					"numinlets" : 1,
					"numoutlets" : 2,
					"outlettype" : [ "", "bang" ],
					"parameter_enable" : 0,
					"patching_rect" : [ 278.0, 331.0, 53.0, 30.0 ],
					"presentation" : 1,
					"presentation_rect" : [ 410.119842529296875, 64.531349182128906, 53.0, 30.0 ],
					"triangle" : 0,
					"tricolor" : [ 0.670588235294118, 0.67843137254902, 0.454901960784314, 1.0 ],
					"triscale" : 1.5
				}

			}
, 			{
				"box" : 				{
					"bgcolor" : [ 0.219607843137255, 0.219607843137255, 0.219607843137255, 0.0 ],
					"fontname" : "Poppins",
					"fontsize" : 12.0,
					"format" : 6,
					"id" : "obj-8",
					"maxclass" : "flonum",
					"numdecimalplaces" : 1,
					"numinlets" : 1,
					"numoutlets" : 2,
					"outlettype" : [ "", "bang" ],
					"parameter_enable" : 0,
					"patching_rect" : [ 254.0, 296.0, 53.0, 30.0 ],
					"presentation" : 1,
					"presentation_rect" : [ 410.119842529296875, 42.531352996826172, 53.0, 30.0 ],
					"triangle" : 0,
					"tricolor" : [ 0.670588235294118, 0.67843137254902, 0.454901960784314, 1.0 ],
					"triscale" : 1.5
				}

			}
, 			{
				"box" : 				{
					"id" : "obj-7",
					"maxclass" : "newobj",
					"numinlets" : 3,
					"numoutlets" : 3,
					"outlettype" : [ "", "", "" ],
					"patching_rect" : [ 375.0, 239.0, 67.0, 22.0 ],
					"text" : "bondo 3"
				}

			}
, 			{
				"box" : 				{
					"id" : "obj-6",
					"maxclass" : "newobj",
					"numinlets" : 1,
					"numoutlets" : 3,
					"outlettype" : [ "float", "float", "float" ],
					"patching_rect" : [ 375.0, 207.0, 67.0, 22.0 ],
					"text" : "unpack f f f"
				}

			}
, 			{
				"box" : 				{
					"angle" : 270.0,
					"background" : 1,
					"bgcolor" : [ 0.219607843137255, 0.219607843137255, 0.219607843137255, 1.0 ],
					"border" : 2,
					"bordercolor" : [ 0.294117647058824, 0.294117647058824, 0.294117647058824, 0.0 ],
					"id" : "obj-1",
					"maxclass" : "panel",
					"mode" : 0,
					"numinlets" : 1,
					"numoutlets" : 0,
					"patching_rect" : [ 36.0, 351.0, 57.0, 57.0 ],
					"presentation" : 1,
					"presentation_rect" : [ 378.812255859375, 164.5, 101.245834350585938, 77.0 ],
					"proportion" : 0.5,
					"rounded" : 15
				}

			}
, 			{
				"box" : 				{
					"angle" : 270.0,
					"background" : 1,
					"bgcolor" : [ 0.219607843137255, 0.219607843137255, 0.219607843137255, 1.0 ],
					"border" : 2,
					"bordercolor" : [ 0.294117647058824, 0.294117647058824, 0.294117647058824, 0.0 ],
					"id" : "obj-23",
					"maxclass" : "panel",
					"mode" : 0,
					"numinlets" : 1,
					"numoutlets" : 0,
					"patching_rect" : [ 36.0, 410.0, 57.0, 57.0 ],
					"presentation" : 1,
					"presentation_rect" : [ 207.202499389648438, 164.5, 150.026321411132813, 77.0 ],
					"proportion" : 0.5,
					"rounded" : 15
				}

			}
, 			{
				"box" : 				{
					"angle" : 270.0,
					"background" : 1,
					"bgcolor" : [ 0.219607843137255, 0.219607843137255, 0.219607843137255, 1.0 ],
					"border" : 2,
					"bordercolor" : [ 0.294117647058824, 0.294117647058824, 0.294117647058824, 0.0 ],
					"id" : "obj-165",
					"maxclass" : "panel",
					"mode" : 0,
					"numinlets" : 1,
					"numoutlets" : 0,
					"patching_rect" : [ 36.0, 469.0, 57.0, 57.0 ],
					"presentation" : 1,
					"presentation_rect" : [ 17.820686340332031, 164.5, 168.52142333984375, 77.0 ],
					"proportion" : 0.5,
					"rounded" : 15
				}

			}
, 			{
				"box" : 				{
					"angle" : 270.0,
					"background" : 1,
					"bgcolor" : [ 0.2, 0.2, 0.2, 0.0 ],
					"border" : 2,
					"bordercolor" : [ 0.294117647058824, 0.294117647058824, 0.294117647058824, 1.0 ],
					"id" : "obj-5",
					"maxclass" : "panel",
					"mode" : 0,
					"numinlets" : 1,
					"numoutlets" : 0,
					"patching_rect" : [ 36.0, 536.0, 85.5, 92.0 ],
					"presentation" : 1,
					"presentation_rect" : [ 2.628562927246094, 157.0, 491.5, 92.0 ],
					"proportion" : 0.5,
					"rounded" : 3
				}

			}
 ],
		"lines" : [ 			{
				"patchline" : 				{
					"destination" : [ "obj-10", 0 ],
					"source" : [ "obj-13", 1 ]
				}

			}
, 			{
				"patchline" : 				{
					"destination" : [ "obj-12", 0 ],
					"source" : [ "obj-13", 2 ]
				}

			}
, 			{
				"patchline" : 				{
					"destination" : [ "obj-8", 0 ],
					"source" : [ "obj-13", 0 ]
				}

			}
, 			{
				"patchline" : 				{
					"destination" : [ "obj-13", 2 ],
					"source" : [ "obj-14", 2 ]
				}

			}
, 			{
				"patchline" : 				{
					"destination" : [ "obj-13", 1 ],
					"source" : [ "obj-14", 1 ]
				}

			}
, 			{
				"patchline" : 				{
					"destination" : [ "obj-13", 0 ],
					"source" : [ "obj-14", 0 ]
				}

			}
, 			{
				"patchline" : 				{
					"destination" : [ "obj-4", 0 ],
					"source" : [ "obj-2", 0 ]
				}

			}
, 			{
				"patchline" : 				{
					"destination" : [ "obj-25", 0 ],
					"source" : [ "obj-26", 0 ]
				}

			}
, 			{
				"patchline" : 				{
					"destination" : [ "obj-25", 0 ],
					"source" : [ "obj-27", 0 ]
				}

			}
, 			{
				"patchline" : 				{
					"destination" : [ "obj-14", 0 ],
					"order" : 1,
					"source" : [ "obj-4", 0 ]
				}

			}
, 			{
				"patchline" : 				{
					"destination" : [ "obj-22", 0 ],
					"order" : 1,
					"source" : [ "obj-4", 2 ]
				}

			}
, 			{
				"patchline" : 				{
					"destination" : [ "obj-24", 0 ],
					"order" : 0,
					"source" : [ "obj-4", 2 ]
				}

			}
, 			{
				"patchline" : 				{
					"destination" : [ "obj-26", 0 ],
					"order" : 0,
					"source" : [ "obj-4", 0 ]
				}

			}
, 			{
				"patchline" : 				{
					"destination" : [ "obj-27", 0 ],
					"order" : 0,
					"source" : [ "obj-4", 1 ]
				}

			}
, 			{
				"patchline" : 				{
					"destination" : [ "obj-6", 0 ],
					"order" : 1,
					"source" : [ "obj-4", 1 ]
				}

			}
, 			{
				"patchline" : 				{
					"destination" : [ "obj-7", 2 ],
					"source" : [ "obj-6", 2 ]
				}

			}
, 			{
				"patchline" : 				{
					"destination" : [ "obj-7", 1 ],
					"source" : [ "obj-6", 1 ]
				}

			}
, 			{
				"patchline" : 				{
					"destination" : [ "obj-7", 0 ],
					"source" : [ "obj-6", 0 ]
				}

			}
, 			{
				"patchline" : 				{
					"destination" : [ "obj-11", 0 ],
					"source" : [ "obj-7", 1 ]
				}

			}
, 			{
				"patchline" : 				{
					"destination" : [ "obj-15", 0 ],
					"source" : [ "obj-7", 0 ]
				}

			}
, 			{
				"patchline" : 				{
					"destination" : [ "obj-9", 0 ],
					"source" : [ "obj-7", 2 ]
				}

			}
 ],
		"dependency_cache" : [ 			{
				"name" : "head_rot.png",
				"bootpath" : "D:/work/qoevave/fau_git/QExE/MaxHost/host/media",
				"patcherrelativepath" : "../media",
				"type" : "PNG",
				"implicit" : 1
			}
, 			{
				"name" : "head_pos.png",
				"bootpath" : "D:/work/qoevave/fau_git/QExE/MaxHost/host/media",
				"patcherrelativepath" : "../media",
				"type" : "PNG",
				"implicit" : 1
			}
 ],
		"autosave" : 0,
		"styles" : [ 			{
				"name" : "AudioStatus_Menu",
				"default" : 				{
					"bgfillcolor" : 					{
						"angle" : 270.0,
						"autogradient" : 0,
						"color" : [ 0.294118, 0.313726, 0.337255, 1 ],
						"color1" : [ 0.454902, 0.462745, 0.482353, 0.0 ],
						"color2" : [ 0.290196, 0.309804, 0.301961, 1.0 ],
						"proportion" : 0.39,
						"type" : "color"
					}

				}
,
				"parentstyle" : "",
				"multi" : 0
			}
, 			{
				"name" : "QExELookAndFeel",
				"default" : 				{
					"locked_bgcolor" : [ 0.211764705882353, 0.211764705882353, 0.211764705882353, 1.0 ],
					"bgcolor" : [ 0.215686274509804, 0.215686274509804, 0.215686274509804, 1.0 ],
					"fontname" : [ "Arial" ],
					"editing_bgcolor" : [ 0.211764705882353, 0.211764705882353, 0.211764705882353, 1.0 ],
					"stripecolor" : [ 0.243137254901961, 0.243137254901961, 0.243137254901961, 1.0 ],
					"color" : [ 0.996078431372549, 0.996078431372549, 0.996078431372549, 1.0 ],
					"fontsize" : [ 12.0 ]
				}
,
				"parentstyle" : "",
				"multi" : 0
			}
, 			{
				"name" : "QExELookAndFeel-1",
				"default" : 				{
					"locked_bgcolor" : [ 0.211764705882353, 0.211764705882353, 0.211764705882353, 1.0 ],
					"editing_bgcolor" : [ 0.211764705882353, 0.211764705882353, 0.211764705882353, 1.0 ],
					"stripecolor" : [ 0.243137254901961, 0.243137254901961, 0.243137254901961, 1.0 ]
				}
,
				"parentstyle" : "",
				"multi" : 0
			}
, 			{
				"name" : "jpatcher001",
				"default" : 				{
					"fontsize" : [ 8.0 ]
				}
,
				"parentstyle" : "",
				"multi" : 0
			}
, 			{
				"name" : "ksliderWhite",
				"default" : 				{
					"color" : [ 1.0, 1.0, 1.0, 1.0 ]
				}
,
				"parentstyle" : "",
				"multi" : 0
			}
, 			{
				"name" : "lightbutton",
				"default" : 				{
					"bgcolor" : [ 0.309495, 0.299387, 0.299789, 1.0 ],
					"elementcolor" : [ 0.654902, 0.572549, 0.376471, 1.0 ]
				}
,
				"parentstyle" : "",
				"multi" : 0
			}
, 			{
				"name" : "myStyle",
				"default" : 				{
					"fontsize" : [ 8.0 ]
				}
,
				"parentstyle" : "",
				"multi" : 0
			}
, 			{
				"name" : "newobjBlue-1",
				"default" : 				{
					"accentcolor" : [ 0.317647, 0.654902, 0.976471, 1.0 ]
				}
,
				"parentstyle" : "",
				"multi" : 0
			}
, 			{
				"name" : "newobjBrown-1",
				"default" : 				{
					"accentcolor" : [ 0.654902, 0.572549, 0.376471, 1.0 ]
				}
,
				"parentstyle" : "",
				"multi" : 0
			}
, 			{
				"name" : "newobjCyan-1",
				"default" : 				{
					"accentcolor" : [ 0.029546, 0.773327, 0.821113, 1.0 ]
				}
,
				"parentstyle" : "",
				"multi" : 0
			}
, 			{
				"name" : "newobjGreen-1",
				"default" : 				{
					"accentcolor" : [ 0.0, 0.533333, 0.168627, 1.0 ]
				}
,
				"parentstyle" : "",
				"multi" : 0
			}
, 			{
				"name" : "newobjYellow-1",
				"default" : 				{
					"accentcolor" : [ 0.82517, 0.78181, 0.059545, 1.0 ],
					"fontsize" : [ 12.059008 ]
				}
,
				"parentstyle" : "",
				"multi" : 0
			}
, 			{
				"name" : "numberGold-1",
				"default" : 				{
					"accentcolor" : [ 0.764706, 0.592157, 0.101961, 1.0 ]
				}
,
				"parentstyle" : "",
				"multi" : 0
			}
, 			{
				"name" : "oldschool",
				"parentstyle" : "velvet",
				"multi" : 0
			}
, 			{
				"name" : "purple",
				"default" : 				{
					"bgcolor" : [ 0.304029, 0.250694, 0.285628, 1.0 ],
					"textcolor_inverse" : [ 0.701961, 0.415686, 0.886275, 1.0 ]
				}
,
				"parentstyle" : "",
				"multi" : 0
			}
, 			{
				"name" : "receives",
				"default" : 				{
					"accentcolor" : [ 0.870588, 0.415686, 0.062745, 1.0 ]
				}
,
				"parentstyle" : "",
				"multi" : 0
			}
, 			{
				"name" : "rsliderGold",
				"default" : 				{
					"bgcolor" : [ 0.764706, 0.592157, 0.101961, 1.0 ],
					"color" : [ 0.646639, 0.821777, 0.854593, 1.0 ]
				}
,
				"parentstyle" : "",
				"multi" : 0
			}
, 			{
				"name" : "sends",
				"default" : 				{
					"accentcolor" : [ 0.0, 0.533333, 0.168627, 1.0 ]
				}
,
				"parentstyle" : "",
				"multi" : 0
			}
, 			{
				"name" : "sergioStyle",
				"comment" : 				{
					"fontname" : [ "Arial" ],
					"fontsize" : [ 8.0 ]
				}
,
				"number" : 				{
					"fontname" : [ "Arial" ],
					"fontsize" : [ 8.0 ]
				}
,
				"newobj" : 				{
					"fontname" : [ "Arial" ],
					"fontsize" : [ 8.0 ]
				}
,
				"message" : 				{
					"fontname" : [ "Arial" ],
					"fontsize" : [ 8.0 ]
				}
,
				"default" : 				{
					"bgfillcolor" : 					{
						"angle" : 270.0,
						"color" : [ 0.290196, 0.309804, 0.301961, 1.0 ],
						"color1" : [ 0.376471, 0.384314, 0.4, 1.0 ],
						"color2" : [ 0.290196, 0.309804, 0.301961, 1.0 ],
						"proportion" : 0.39,
						"type" : "gradient"
					}

				}
,
				"parentstyle" : "",
				"multi" : 0
			}
, 			{
				"name" : "sgm001",
				"default" : 				{
					"fontname" : [ "Verdana" ],
					"fontsize" : [ 9.0 ]
				}
,
				"parentstyle" : "",
				"multi" : 0
			}
, 			{
				"name" : "tastefulltoggle",
				"default" : 				{
					"bgcolor" : [ 0.185512, 0.263736, 0.260626, 1.0 ],
					"color" : [ 0.941176, 0.690196, 0.196078, 1.0 ]
				}
,
				"parentstyle" : "",
				"multi" : 0
			}
, 			{
				"name" : "tastefultoggle",
				"default" : 				{
					"bgcolor" : [ 0.287863, 0.333333, 0.329398, 1.0 ],
					"color" : [ 0.941176, 0.690196, 0.196078, 1.0 ],
					"elementcolor" : [ 0.654902, 0.572549, 0.376471, 1.0 ]
				}
,
				"parentstyle" : "",
				"multi" : 0
			}
 ],
		"bgcolor" : [ 0.235294117647059, 0.235294117647059, 0.235294117647059, 1.0 ],
		"editing_bgcolor" : [ 0.235294117647059, 0.235294117647059, 0.235294117647059, 1.0 ]
	}

}
