{
	"patcher" : 	{
		"fileversion" : 1,
		"appversion" : 		{
			"major" : 8,
			"minor" : 5,
			"revision" : 1,
			"architecture" : "x64",
			"modernui" : 1
		}
,
		"classnamespace" : "box",
		"rect" : [ 1885.0, 198.0, 931.0, 762.0 ],
		"bglocked" : 0,
		"openinpresentation" : 1,
		"default_fontsize" : 12.0,
		"default_fontface" : 0,
		"default_fontname" : "Arial",
		"gridonopen" : 1,
		"gridsize" : [ 15.0, 15.0 ],
		"gridsnaponopen" : 1,
		"objectsnaponopen" : 1,
		"statusbarvisible" : 2,
		"toolbarvisible" : 1,
		"lefttoolbarpinned" : 0,
		"toptoolbarpinned" : 0,
		"righttoolbarpinned" : 0,
		"bottomtoolbarpinned" : 0,
		"toolbars_unpinned_last_save" : 0,
		"tallnewobj" : 0,
		"boxanimatetime" : 200,
		"enablehscroll" : 1,
		"enablevscroll" : 1,
		"devicewidth" : 0.0,
		"description" : "",
		"digest" : "methodP910",
		"tags" : "methodP910",
		"style" : "QExELookAndFeel",
		"subpatcher_template" : "",
		"assistshowspatchername" : 0,
		"globalpatchername" : "methodP910[1][1][1][1][1][1][1][1][1][1][1][1][1][1][1]",
		"boxes" : [ 			{
				"box" : 				{
					"id" : "obj-32",
					"maxclass" : "message",
					"numinlets" : 2,
					"numoutlets" : 1,
					"outlettype" : [ "" ],
					"patching_rect" : [ 33.0, 493.0, 172.0, 22.0 ]
				}

			}
, 			{
				"box" : 				{
					"id" : "obj-36",
					"maxclass" : "newobj",
					"numinlets" : 1,
					"numoutlets" : 6,
					"outlettype" : [ "int", "int", "int", "int", "int", "int" ],
					"patching_rect" : [ 588.5, 307.0, 301.0, 22.0 ],
					"text" : "unpack i i i i i i"
				}

			}
, 			{
				"box" : 				{
					"bgcolor" : [ 0.219607843137255, 0.219607843137255, 0.219607843137255, 1.0 ],
					"fontsize" : 10.0,
					"id" : "obj-30",
					"maxclass" : "number",
					"numinlets" : 1,
					"numoutlets" : 2,
					"outlettype" : [ "", "bang" ],
					"parameter_enable" : 0,
					"patching_rect" : [ 870.5, 347.0, 49.0, 20.0 ],
					"presentation" : 1,
					"presentation_rect" : [ 437.452423095703125, 243.273422241210938, 38.705883026123047, 20.0 ]
				}

			}
, 			{
				"box" : 				{
					"bgcolor" : [ 0.219607843137255, 0.219607843137255, 0.219607843137255, 1.0 ],
					"fontsize" : 10.0,
					"id" : "obj-28",
					"maxclass" : "number",
					"numinlets" : 1,
					"numoutlets" : 2,
					"outlettype" : [ "", "bang" ],
					"parameter_enable" : 0,
					"patching_rect" : [ 814.0999755859375, 347.0, 49.0, 20.0 ],
					"presentation" : 1,
					"presentation_rect" : [ 437.452423095703125, 222.273422241210938, 38.705883026123047, 20.0 ]
				}

			}
, 			{
				"box" : 				{
					"bgcolor" : [ 0.219607843137255, 0.219607843137255, 0.219607843137255, 1.0 ],
					"fontsize" : 10.0,
					"id" : "obj-27",
					"maxclass" : "number",
					"numinlets" : 1,
					"numoutlets" : 2,
					"outlettype" : [ "", "bang" ],
					"parameter_enable" : 0,
					"patching_rect" : [ 757.699951171875, 347.0, 49.0, 20.0 ],
					"presentation" : 1,
					"presentation_rect" : [ 437.452423095703125, 202.273422241210938, 38.705883026123047, 20.0 ]
				}

			}
, 			{
				"box" : 				{
					"bgcolor" : [ 0.219607843137255, 0.219607843137255, 0.219607843137255, 1.0 ],
					"fontsize" : 10.0,
					"id" : "obj-25",
					"maxclass" : "number",
					"numinlets" : 1,
					"numoutlets" : 2,
					"outlettype" : [ "", "bang" ],
					"parameter_enable" : 0,
					"patching_rect" : [ 701.300048828125, 347.0, 49.0, 20.0 ],
					"presentation" : 1,
					"presentation_rect" : [ 437.452423095703125, 182.273422241210938, 38.705883026123047, 20.0 ]
				}

			}
, 			{
				"box" : 				{
					"bgcolor" : [ 0.219607843137255, 0.219607843137255, 0.219607843137255, 1.0 ],
					"fontsize" : 10.0,
					"id" : "obj-24",
					"maxclass" : "number",
					"numinlets" : 1,
					"numoutlets" : 2,
					"outlettype" : [ "", "bang" ],
					"parameter_enable" : 0,
					"patching_rect" : [ 644.9000244140625, 347.0, 49.0, 20.0 ],
					"presentation" : 1,
					"presentation_rect" : [ 437.452423095703125, 162.273422241210938, 38.705883026123047, 20.0 ]
				}

			}
, 			{
				"box" : 				{
					"bgcolor" : [ 0.219607843137255, 0.219607843137255, 0.219607843137255, 1.0 ],
					"fontsize" : 10.0,
					"id" : "obj-23",
					"maxclass" : "number",
					"numinlets" : 1,
					"numoutlets" : 2,
					"outlettype" : [ "", "bang" ],
					"parameter_enable" : 0,
					"patching_rect" : [ 588.5, 347.0, 49.0, 20.0 ],
					"presentation" : 1,
					"presentation_rect" : [ 437.452423095703125, 141.273422241210938, 38.705883026123047, 20.0 ]
				}

			}
, 			{
				"box" : 				{
					"id" : "obj-26",
					"linecount" : 4,
					"maxclass" : "comment",
					"numinlets" : 1,
					"numoutlets" : 0,
					"patching_rect" : [ 71.5, 16.0, 204.0, 60.0 ],
					"text" : "Input from testmanager.js. \n\nRequirements must include a 'writeResult' and 'setItem' message. ",
					"textcolor" : [ 0.996078431606293, 0.996078431606293, 0.996078431606293, 1.0 ]
				}

			}
, 			{
				"box" : 				{
					"id" : "obj-9",
					"maxclass" : "newobj",
					"numinlets" : 1,
					"numoutlets" : 1,
					"outlettype" : [ "" ],
					"patching_rect" : [ 63.0, 321.0, 149.0, 22.0 ],
					"text" : "prepend SetCurrentRating"
				}

			}
, 			{
				"box" : 				{
					"color" : [ 0.211764705882353, 0.568627450980392, 0.588235294117647, 1.0 ],
					"id" : "obj-3",
					"maxclass" : "newobj",
					"numinlets" : 0,
					"numoutlets" : 1,
					"outlettype" : [ "" ],
					"patching_rect" : [ 358.5, 16.0, 104.0, 22.0 ],
					"text" : "receive osc_in_all"
				}

			}
, 			{
				"box" : 				{
					"fontface" : 1,
					"id" : "obj-6",
					"maxclass" : "comment",
					"numinlets" : 1,
					"numoutlets" : 0,
					"patching_rect" : [ 493.83331298828125, 483.66668701171875, 18.0, 20.0 ],
					"presentation" : 1,
					"presentation_rect" : [ 277.6876220703125, 274.7734375, 18.0, 20.0 ],
					"text" : "|",
					"textcolor" : [ 0.996078431606293, 0.996078431606293, 0.996078431606293, 1.0 ],
					"textjustification" : 1
				}

			}
, 			{
				"box" : 				{
					"id" : "obj-63",
					"maxclass" : "newobj",
					"numinlets" : 1,
					"numoutlets" : 1,
					"outlettype" : [ "" ],
					"patching_rect" : [ 33.0, 364.5, 170.0, 22.0 ],
					"saved_object_attributes" : 					{
						"filename" : "questionnaire_NASA-TLX.js",
						"parameter_enable" : 0
					}
,
					"text" : "js questionnaire_NASA-TLX.js"
				}

			}
, 			{
				"box" : 				{
					"id" : "obj-52",
					"linecount" : 2,
					"maxclass" : "message",
					"numinlets" : 2,
					"numoutlets" : 1,
					"outlettype" : [ "" ],
					"patching_rect" : [ 400.6875, 177.0, 43.0, 35.0 ],
					"text" : "select 6 $1"
				}

			}
, 			{
				"box" : 				{
					"id" : "obj-51",
					"linecount" : 2,
					"maxclass" : "message",
					"numinlets" : 2,
					"numoutlets" : 1,
					"outlettype" : [ "" ],
					"patching_rect" : [ 344.75, 177.0, 43.0, 35.0 ],
					"text" : "select 5 $1"
				}

			}
, 			{
				"box" : 				{
					"id" : "obj-50",
					"linecount" : 2,
					"maxclass" : "message",
					"numinlets" : 2,
					"numoutlets" : 1,
					"outlettype" : [ "" ],
					"patching_rect" : [ 288.8125, 177.0, 43.0, 35.0 ],
					"text" : "select 4 $1"
				}

			}
, 			{
				"box" : 				{
					"id" : "obj-49",
					"linecount" : 2,
					"maxclass" : "message",
					"numinlets" : 2,
					"numoutlets" : 1,
					"outlettype" : [ "" ],
					"patching_rect" : [ 232.875, 177.0, 43.0, 35.0 ],
					"text" : "select 3 $1"
				}

			}
, 			{
				"box" : 				{
					"id" : "obj-48",
					"linecount" : 2,
					"maxclass" : "message",
					"numinlets" : 2,
					"numoutlets" : 1,
					"outlettype" : [ "" ],
					"patching_rect" : [ 176.9375, 177.0, 43.0, 35.0 ],
					"text" : "select 2 $1"
				}

			}
, 			{
				"box" : 				{
					"id" : "obj-47",
					"linecount" : 2,
					"maxclass" : "message",
					"numinlets" : 2,
					"numoutlets" : 1,
					"outlettype" : [ "" ],
					"patching_rect" : [ 121.0, 177.0, 43.0, 35.0 ],
					"text" : "select 1 $1"
				}

			}
, 			{
				"box" : 				{
					"fontface" : 1,
					"id" : "obj-12",
					"maxclass" : "comment",
					"numinlets" : 1,
					"numoutlets" : 0,
					"patching_rect" : [ 513.83331298828125, 483.66668701171875, 18.0, 20.0 ],
					"presentation" : 1,
					"presentation_rect" : [ 137.9508056640625, 274.7734375, 18.0, 20.0 ],
					"text" : "|",
					"textcolor" : [ 0.996078431606293, 0.996078431606293, 0.996078431606293, 1.0 ],
					"textjustification" : 1
				}

			}
, 			{
				"box" : 				{
					"fontface" : 1,
					"id" : "obj-29",
					"maxclass" : "comment",
					"numinlets" : 1,
					"numoutlets" : 0,
					"patching_rect" : [ 533.83331298828125, 483.66668701171875, 18.0, 20.0 ],
					"presentation" : 1,
					"presentation_rect" : [ 421.737152099609375, 274.7734375, 18.0, 20.0 ],
					"text" : "|",
					"textcolor" : [ 0.996078431606293, 0.996078431606293, 0.996078431606293, 1.0 ],
					"textjustification" : 1,
					"varname" : "label4"
				}

			}
, 			{
				"box" : 				{
					"fontname" : "Poppins",
					"id" : "obj-403",
					"maxclass" : "comment",
					"numinlets" : 1,
					"numoutlets" : 0,
					"patching_rect" : [ 491.0, 513.5, 83.0, 23.0 ],
					"presentation" : 1,
					"presentation_rect" : [ 115.60870361328125, 296.7008056640625, 62.684211730957031, 23.0 ],
					"text" : "Very Low",
					"textcolor" : [ 0.996078431606293, 0.996078431606293, 0.996078431606293, 1.0 ],
					"textjustification" : 1
				}

			}
, 			{
				"box" : 				{
					"fontface" : 0,
					"fontname" : "Poppins",
					"id" : "obj-400",
					"maxclass" : "comment",
					"numinlets" : 1,
					"numoutlets" : 0,
					"patching_rect" : [ 491.0, 543.5, 83.0, 23.0 ],
					"presentation" : 1,
					"presentation_rect" : [ 396.69769287109375, 296.7008056640625, 68.078948974609375, 23.0 ],
					"text" : "Very High",
					"textcolor" : [ 0.996078431606293, 0.996078431606293, 0.996078431606293, 1.0 ],
					"textjustification" : 1,
					"varname" : "label5"
				}

			}
, 			{
				"box" : 				{
					"fontname" : "Poppins",
					"fontsize" : 10.0,
					"id" : "obj-19",
					"maxclass" : "comment",
					"numinlets" : 1,
					"numoutlets" : 0,
					"patching_rect" : [ 494.0, 231.5, 134.0, 20.0 ],
					"presentation" : 1,
					"presentation_rect" : [ 23.855937957763672, 240.7734375, 107.0, 20.0 ],
					"text" : "Frustration:",
					"textcolor" : [ 0.584313750267029, 0.584313750267029, 0.584313750267029, 1.0 ],
					"textjustification" : 2,
					"varname" : "labelsDescription[9]"
				}

			}
, 			{
				"box" : 				{
					"fontname" : "Poppins",
					"fontsize" : 10.0,
					"id" : "obj-18",
					"maxclass" : "comment",
					"numinlets" : 1,
					"numoutlets" : 0,
					"patching_rect" : [ 494.0, 201.5, 135.0, 20.0 ],
					"presentation" : 1,
					"presentation_rect" : [ 23.855937957763672, 220.773422241210938, 107.0, 20.0 ],
					"text" : "Effort:",
					"textcolor" : [ 0.584313750267029, 0.584313750267029, 0.584313750267029, 1.0 ],
					"textjustification" : 2,
					"varname" : "labelsDescription[8]"
				}

			}
, 			{
				"box" : 				{
					"fontname" : "Poppins",
					"fontsize" : 10.0,
					"id" : "obj-17",
					"maxclass" : "comment",
					"numinlets" : 1,
					"numoutlets" : 0,
					"patching_rect" : [ 494.0, 171.5, 135.0, 20.0 ],
					"presentation" : 1,
					"presentation_rect" : [ 23.855937957763672, 201.023422241210938, 106.76470947265625, 20.0 ],
					"text" : "Performance:",
					"textcolor" : [ 0.584313750267029, 0.584313750267029, 0.584313750267029, 1.0 ],
					"textjustification" : 2,
					"varname" : "labelsDescription[7]"
				}

			}
, 			{
				"box" : 				{
					"fontname" : "Poppins",
					"fontsize" : 10.0,
					"id" : "obj-15",
					"maxclass" : "comment",
					"numinlets" : 1,
					"numoutlets" : 0,
					"patching_rect" : [ 494.0, 142.0, 133.0, 20.0 ],
					"presentation" : 1,
					"presentation_rect" : [ 23.855937957763672, 181.023422241210938, 107.0, 20.0 ],
					"text" : "Temporal demand:",
					"textcolor" : [ 0.584313750267029, 0.584313750267029, 0.584313750267029, 1.0 ],
					"textjustification" : 2,
					"varname" : "labelsDescription[6]"
				}

			}
, 			{
				"box" : 				{
					"fontname" : "Poppins",
					"fontsize" : 10.0,
					"id" : "obj-14",
					"maxclass" : "comment",
					"numinlets" : 1,
					"numoutlets" : 0,
					"patching_rect" : [ 494.0, 112.0, 134.0, 20.0 ],
					"presentation" : 1,
					"presentation_rect" : [ 23.855937957763672, 160.155776977539062, 107.0, 20.0 ],
					"text" : "Physical demand:",
					"textcolor" : [ 0.584313750267029, 0.584313750267029, 0.584313750267029, 1.0 ],
					"textjustification" : 2,
					"varname" : "labelsDescription[5]"
				}

			}
, 			{
				"box" : 				{
					"fontname" : "Poppins",
					"fontsize" : 10.0,
					"id" : "obj-13",
					"maxclass" : "comment",
					"numinlets" : 1,
					"numoutlets" : 0,
					"patching_rect" : [ 494.0, 82.0, 134.0, 20.0 ],
					"presentation" : 1,
					"presentation_rect" : [ 23.855937957763672, 139.273422241210938, 107.0, 20.0 ],
					"text" : "Mental demand:",
					"textcolor" : [ 0.584313750267029, 0.584313750267029, 0.584313750267029, 1.0 ],
					"textjustification" : 2,
					"varname" : "labelsDescription[4]"
				}

			}
, 			{
				"box" : 				{
					"bgcolor" : [ 0.2, 0.2, 0.2, 0.0 ],
					"candycane" : 16,
					"contdata" : 1,
					"ghostbar" : 65,
					"id" : "obj-7",
					"maxclass" : "multislider",
					"numinlets" : 1,
					"numoutlets" : 2,
					"orientation" : 0,
					"outlettype" : [ "", "" ],
					"parameter_enable" : 0,
					"patching_rect" : [ 494.0, 263.0, 85.0, 102.0 ],
					"presentation" : 1,
					"presentation_rect" : [ 144.42138671875, 139.273422241210938, 288.0, 126.0 ],
					"setminmax" : [ 0.0, 20.0 ],
					"settype" : 0,
					"size" : 6,
					"spacing" : 4,
					"thickness" : 4,
					"varname" : "NasaSliders"
				}

			}
, 			{
				"box" : 				{
					"id" : "obj-40",
					"linecount" : 2,
					"maxclass" : "comment",
					"numinlets" : 1,
					"numoutlets" : 0,
					"patching_rect" : [ 33.0, 446.9000244140625, 80.0, 33.0 ],
					"text" : "Extra output if needed. ",
					"textcolor" : [ 0.996078431606293, 0.996078431606293, 0.996078431606293, 1.0 ]
				}

			}
, 			{
				"box" : 				{
					"id" : "obj-39",
					"maxclass" : "comment",
					"numinlets" : 1,
					"numoutlets" : 0,
					"patching_rect" : [ 176.9375, 446.9000244140625, 121.0, 20.0 ],
					"text" : "Sent to resultsWriter.",
					"textcolor" : [ 0.996078431606293, 0.996078431606293, 0.996078431606293, 1.0 ]
				}

			}
, 			{
				"box" : 				{
					"bgcolor" : [ 0.301961, 0.301961, 0.301961, 0.0 ],
					"bgcolor2" : [ 0.301961, 0.301961, 0.301961, 0.0 ],
					"bgfillcolor_angle" : 270.0,
					"bgfillcolor_autogradient" : 0.0,
					"bgfillcolor_color" : [ 0.2, 0.2, 0.2, 0.0 ],
					"bgfillcolor_color1" : [ 0.301961, 0.301961, 0.301961, 0.0 ],
					"bgfillcolor_color2" : [ 0.2, 0.2, 0.2, 1.0 ],
					"bgfillcolor_proportion" : 0.5,
					"bgfillcolor_type" : "color",
					"fontface" : 3,
					"fontname" : "Poppins",
					"gradient" : 1,
					"id" : "obj-20",
					"maxclass" : "message",
					"numinlets" : 2,
					"numoutlets" : 1,
					"outlettype" : [ "" ],
					"patching_rect" : [ 491.0, 573.5, 126.0, 25.0 ],
					"presentation" : 1,
					"presentation_rect" : [ 361.0, 16.5, 115.0, 25.0 ],
					"text" : "<open reference>",
					"textcolor" : [ 0.20392157137394, 0.47843137383461, 0.356862753629684, 1.0 ]
				}

			}
, 			{
				"box" : 				{
					"id" : "obj-16",
					"linecount" : 3,
					"maxclass" : "message",
					"numinlets" : 2,
					"numoutlets" : 1,
					"outlettype" : [ "" ],
					"patching_rect" : [ 491.0, 612.4000244140625, 405.0, 49.0 ],
					"text" : ";\rmax launchbrowser https://www.sciencedirect.com/science/article/abs/pii/S0166411508623869"
				}

			}
, 			{
				"box" : 				{
					"fontname" : "Poppins",
					"id" : "obj-8",
					"linecount" : 3,
					"maxclass" : "comment",
					"numinlets" : 1,
					"numoutlets" : 0,
					"patching_rect" : [ 494.0, 409.0, 252.0, 57.0 ],
					"presentation" : 1,
					"presentation_linecount" : 2,
					"presentation_rect" : [ 101.0, 70.0, 380.0, 40.0 ],
					"text" : "A multi-demensional questionnaire designed to measure workload-related factors when performing a specific task. ",
					"textcolor" : [ 0.584313750267029, 0.584313750267029, 0.584313750267029, 1.0 ],
					"varname" : "labelsDescription[2]"
				}

			}
, 			{
				"box" : 				{
					"fontname" : "Poppins",
					"id" : "obj-1",
					"maxclass" : "comment",
					"numinlets" : 1,
					"numoutlets" : 0,
					"patching_rect" : [ 494.0, 54.0, 169.0, 23.0 ],
					"presentation" : 1,
					"presentation_rect" : [ 15.0, 70.0, 84.0, 23.0 ],
					"text" : "Information:",
					"textcolor" : [ 0.584313750267029, 0.584313750267029, 0.584313750267029, 1.0 ],
					"varname" : "labelsDescription[1]"
				}

			}
, 			{
				"box" : 				{
					"fontface" : 1,
					"fontname" : "Poppins",
					"fontsize" : 15.0,
					"id" : "obj-34",
					"maxclass" : "comment",
					"numinlets" : 1,
					"numoutlets" : 0,
					"patching_rect" : [ 494.0, 16.0, 207.0, 28.0 ],
					"presentation" : 1,
					"presentation_rect" : [ 15.0, 15.0, 207.0, 28.0 ],
					"text" : "Questionnaire: NASA-TLX",
					"textcolor" : [ 0.996078431606293, 0.996078431606293, 0.996078431606293, 1.0 ]
				}

			}
, 			{
				"box" : 				{
					"id" : "obj-11",
					"maxclass" : "newobj",
					"numinlets" : 7,
					"numoutlets" : 7,
					"outlettype" : [ "", "", "", "", "", "", "" ],
					"patching_rect" : [ 121.0, 142.0, 348.0, 22.0 ],
					"text" : "route /slider/q1 /slider/q2 /slider/q3 /slider/q4 /slider/q5 /slider/q6"
				}

			}
, 			{
				"box" : 				{
					"annotation" : "",
					"comment" : "writeResults <list> sends to node.script to stream results to a text file. ",
					"hint" : "",
					"id" : "obj-434",
					"index" : 0,
					"maxclass" : "outlet",
					"numinlets" : 1,
					"numoutlets" : 0,
					"patching_rect" : [ 176.9375, 414.9000244140625, 30.0, 30.0 ],
					"tricolor" : [ 0.235294117647059, 0.992156862745098, 0.0, 1.0 ]
				}

			}
, 			{
				"box" : 				{
					"annotation" : "",
					"comment" : "Selected condition output <int>",
					"hint" : "",
					"id" : "obj-433",
					"index" : 0,
					"maxclass" : "outlet",
					"numinlets" : 1,
					"numoutlets" : 0,
					"patching_rect" : [ 33.0, 414.9000244140625, 30.0, 30.0 ],
					"tricolor" : [ 0.235294117647059, 0.992156862745098, 0.0, 1.0 ]
				}

			}
, 			{
				"box" : 				{
					"annotation" : "",
					"comment" : "OSC data in. Script <udprecive>",
					"id" : "obj-432",
					"index" : 0,
					"maxclass" : "inlet",
					"numinlets" : 0,
					"numoutlets" : 1,
					"outlettype" : [ "" ],
					"patching_rect" : [ 323.0, 16.0, 30.0, 30.0 ],
					"tricolor" : [ 0.996078431372549, 0.0, 0.0, 1.0 ],
					"varname" : "udpreceive"
				}

			}
, 			{
				"box" : 				{
					"annotation" : "",
					"comment" : "Number of MUSHRA conditions <int>",
					"id" : "obj-1855",
					"index" : 0,
					"maxclass" : "inlet",
					"numinlets" : 0,
					"numoutlets" : 1,
					"outlettype" : [ "" ],
					"patching_rect" : [ 33.0, 16.0, 30.0, 30.0 ],
					"tricolor" : [ 0.235294117647059, 0.992156862745098, 0.0, 1.0 ]
				}

			}
, 			{
				"box" : 				{
					"angle" : 270.0,
					"background" : 1,
					"bgcolor" : [ 0.219607843137255, 0.219607843137255, 0.219607843137255, 1.0 ],
					"border" : 2,
					"bordercolor" : [ 0.294117647058824, 0.294117647058824, 0.294117647058824, 0.0 ],
					"id" : "obj-165",
					"maxclass" : "panel",
					"mode" : 0,
					"numinlets" : 1,
					"numoutlets" : 0,
					"patching_rect" : [ 749.699951171875, 409.0, 65.0, 70.0 ],
					"presentation" : 1,
					"presentation_rect" : [ 15.0, 130.135452270507812, 467.83331298828125, 207.647064208984375 ],
					"proportion" : 0.5,
					"rounded" : 15
				}

			}
, 			{
				"box" : 				{
					"angle" : 270.0,
					"background" : 1,
					"bgcolor" : [ 0.2, 0.2, 0.2, 0.0 ],
					"border" : 2,
					"bordercolor" : [ 0.294117647058824, 0.294117647058824, 0.294117647058824, 1.0 ],
					"hidden" : 1,
					"id" : "obj-2",
					"maxclass" : "panel",
					"mode" : 0,
					"numinlets" : 1,
					"numoutlets" : 0,
					"patching_rect" : [ 494.0, 367.0, 40.0, 40.0 ],
					"presentation" : 1,
					"presentation_rect" : [ 0.0, 0.0, 500.0, 541.0 ],
					"proportion" : 0.5,
					"rounded" : 5
				}

			}
 ],
		"lines" : [ 			{
				"patchline" : 				{
					"destination" : [ "obj-47", 0 ],
					"source" : [ "obj-11", 0 ]
				}

			}
, 			{
				"patchline" : 				{
					"destination" : [ "obj-48", 0 ],
					"source" : [ "obj-11", 1 ]
				}

			}
, 			{
				"patchline" : 				{
					"destination" : [ "obj-49", 0 ],
					"source" : [ "obj-11", 2 ]
				}

			}
, 			{
				"patchline" : 				{
					"destination" : [ "obj-50", 0 ],
					"source" : [ "obj-11", 3 ]
				}

			}
, 			{
				"patchline" : 				{
					"destination" : [ "obj-51", 0 ],
					"source" : [ "obj-11", 4 ]
				}

			}
, 			{
				"patchline" : 				{
					"destination" : [ "obj-52", 0 ],
					"source" : [ "obj-11", 5 ]
				}

			}
, 			{
				"patchline" : 				{
					"destination" : [ "obj-63", 0 ],
					"source" : [ "obj-1855", 0 ]
				}

			}
, 			{
				"patchline" : 				{
					"destination" : [ "obj-16", 0 ],
					"source" : [ "obj-20", 0 ]
				}

			}
, 			{
				"patchline" : 				{
					"destination" : [ "obj-11", 0 ],
					"midpoints" : [ 368.0, 123.0, 130.5, 123.0 ],
					"source" : [ "obj-3", 0 ]
				}

			}
, 			{
				"patchline" : 				{
					"destination" : [ "obj-23", 0 ],
					"source" : [ "obj-36", 0 ]
				}

			}
, 			{
				"patchline" : 				{
					"destination" : [ "obj-24", 0 ],
					"source" : [ "obj-36", 1 ]
				}

			}
, 			{
				"patchline" : 				{
					"destination" : [ "obj-25", 0 ],
					"source" : [ "obj-36", 2 ]
				}

			}
, 			{
				"patchline" : 				{
					"destination" : [ "obj-27", 0 ],
					"source" : [ "obj-36", 3 ]
				}

			}
, 			{
				"patchline" : 				{
					"destination" : [ "obj-28", 0 ],
					"source" : [ "obj-36", 4 ]
				}

			}
, 			{
				"patchline" : 				{
					"destination" : [ "obj-30", 0 ],
					"source" : [ "obj-36", 5 ]
				}

			}
, 			{
				"patchline" : 				{
					"destination" : [ "obj-7", 0 ],
					"source" : [ "obj-47", 0 ]
				}

			}
, 			{
				"patchline" : 				{
					"destination" : [ "obj-7", 0 ],
					"source" : [ "obj-48", 0 ]
				}

			}
, 			{
				"patchline" : 				{
					"destination" : [ "obj-7", 0 ],
					"source" : [ "obj-49", 0 ]
				}

			}
, 			{
				"patchline" : 				{
					"destination" : [ "obj-7", 0 ],
					"source" : [ "obj-50", 0 ]
				}

			}
, 			{
				"patchline" : 				{
					"destination" : [ "obj-7", 0 ],
					"source" : [ "obj-51", 0 ]
				}

			}
, 			{
				"patchline" : 				{
					"destination" : [ "obj-7", 0 ],
					"source" : [ "obj-52", 0 ]
				}

			}
, 			{
				"patchline" : 				{
					"destination" : [ "obj-32", 1 ],
					"order" : 0,
					"source" : [ "obj-63", 0 ]
				}

			}
, 			{
				"patchline" : 				{
					"destination" : [ "obj-434", 0 ],
					"order" : 1,
					"source" : [ "obj-63", 0 ]
				}

			}
, 			{
				"patchline" : 				{
					"destination" : [ "obj-36", 0 ],
					"order" : 0,
					"source" : [ "obj-7", 0 ]
				}

			}
, 			{
				"patchline" : 				{
					"destination" : [ "obj-9", 0 ],
					"midpoints" : [ 503.5, 375.0, 239.0, 375.0, 239.0, 310.0, 72.5, 310.0 ],
					"order" : 1,
					"source" : [ "obj-7", 0 ]
				}

			}
, 			{
				"patchline" : 				{
					"destination" : [ "obj-63", 0 ],
					"source" : [ "obj-9", 0 ]
				}

			}
 ],
		"dependency_cache" : [ 			{
				"name" : "questionnaire_NASA-TLX.js",
				"bootpath" : "~/Documents/Work/dfg_2021_qoevave/fau.gitlab/qexe/qexe_max/host/code",
				"patcherrelativepath" : "../code",
				"type" : "TEXT",
				"implicit" : 1
			}
 ],
		"autosave" : 0,
		"styles" : [ 			{
				"name" : "AudioStatus_Menu",
				"default" : 				{
					"bgfillcolor" : 					{
						"angle" : 270.0,
						"autogradient" : 0,
						"color" : [ 0.294118, 0.313726, 0.337255, 1 ],
						"color1" : [ 0.454902, 0.462745, 0.482353, 0.0 ],
						"color2" : [ 0.290196, 0.309804, 0.301961, 1.0 ],
						"proportion" : 0.39,
						"type" : "color"
					}

				}
,
				"parentstyle" : "",
				"multi" : 0
			}
, 			{
				"name" : "QExELookAndFeel",
				"default" : 				{
					"editing_bgcolor" : [ 0.211764705882353, 0.211764705882353, 0.211764705882353, 1.0 ],
					"locked_bgcolor" : [ 0.211764705882353, 0.211764705882353, 0.211764705882353, 1.0 ],
					"stripecolor" : [ 0.243137254901961, 0.243137254901961, 0.243137254901961, 1.0 ]
				}
,
				"parentstyle" : "",
				"multi" : 0
			}
, 			{
				"name" : "QExELookAndFeel-1",
				"default" : 				{
					"editing_bgcolor" : [ 0.211764705882353, 0.211764705882353, 0.211764705882353, 1.0 ],
					"locked_bgcolor" : [ 0.211764705882353, 0.211764705882353, 0.211764705882353, 1.0 ],
					"stripecolor" : [ 0.243137254901961, 0.243137254901961, 0.243137254901961, 1.0 ]
				}
,
				"parentstyle" : "",
				"multi" : 0
			}
, 			{
				"name" : "QExELookAndFeel-2",
				"default" : 				{
					"editing_bgcolor" : [ 0.211764705882353, 0.211764705882353, 0.211764705882353, 1.0 ],
					"locked_bgcolor" : [ 0.211764705882353, 0.211764705882353, 0.211764705882353, 1.0 ],
					"stripecolor" : [ 0.243137254901961, 0.243137254901961, 0.243137254901961, 1.0 ]
				}
,
				"parentstyle" : "",
				"multi" : 0
			}
, 			{
				"name" : "jpatcher001",
				"default" : 				{
					"fontsize" : [ 8.0 ]
				}
,
				"parentstyle" : "",
				"multi" : 0
			}
, 			{
				"name" : "ksliderWhite",
				"default" : 				{
					"color" : [ 1.0, 1.0, 1.0, 1.0 ]
				}
,
				"parentstyle" : "",
				"multi" : 0
			}
, 			{
				"name" : "lightbutton",
				"default" : 				{
					"bgcolor" : [ 0.309495, 0.299387, 0.299789, 1.0 ],
					"elementcolor" : [ 0.654902, 0.572549, 0.376471, 1.0 ]
				}
,
				"parentstyle" : "",
				"multi" : 0
			}
, 			{
				"name" : "myStyle",
				"default" : 				{
					"fontsize" : [ 8.0 ]
				}
,
				"parentstyle" : "",
				"multi" : 0
			}
, 			{
				"name" : "newobjBlue-1",
				"default" : 				{
					"accentcolor" : [ 0.317647, 0.654902, 0.976471, 1.0 ]
				}
,
				"parentstyle" : "",
				"multi" : 0
			}
, 			{
				"name" : "newobjBrown-1",
				"default" : 				{
					"accentcolor" : [ 0.654902, 0.572549, 0.376471, 1.0 ]
				}
,
				"parentstyle" : "",
				"multi" : 0
			}
, 			{
				"name" : "newobjCyan-1",
				"default" : 				{
					"accentcolor" : [ 0.029546, 0.773327, 0.821113, 1.0 ]
				}
,
				"parentstyle" : "",
				"multi" : 0
			}
, 			{
				"name" : "newobjGreen-1",
				"default" : 				{
					"accentcolor" : [ 0.0, 0.533333, 0.168627, 1.0 ]
				}
,
				"parentstyle" : "",
				"multi" : 0
			}
, 			{
				"name" : "newobjYellow-1",
				"default" : 				{
					"accentcolor" : [ 0.82517, 0.78181, 0.059545, 1.0 ],
					"fontsize" : [ 12.059008 ]
				}
,
				"parentstyle" : "",
				"multi" : 0
			}
, 			{
				"name" : "numberGold-1",
				"default" : 				{
					"accentcolor" : [ 0.764706, 0.592157, 0.101961, 1.0 ]
				}
,
				"parentstyle" : "",
				"multi" : 0
			}
, 			{
				"name" : "oldschool",
				"parentstyle" : "velvet",
				"multi" : 0
			}
, 			{
				"name" : "purple",
				"default" : 				{
					"bgcolor" : [ 0.304029, 0.250694, 0.285628, 1.0 ],
					"textcolor_inverse" : [ 0.701961, 0.415686, 0.886275, 1.0 ]
				}
,
				"parentstyle" : "",
				"multi" : 0
			}
, 			{
				"name" : "receives",
				"default" : 				{
					"accentcolor" : [ 0.870588, 0.415686, 0.062745, 1.0 ]
				}
,
				"parentstyle" : "",
				"multi" : 0
			}
, 			{
				"name" : "rsliderGold",
				"default" : 				{
					"bgcolor" : [ 0.764706, 0.592157, 0.101961, 1.0 ],
					"color" : [ 0.646639, 0.821777, 0.854593, 1.0 ]
				}
,
				"parentstyle" : "",
				"multi" : 0
			}
, 			{
				"name" : "sends",
				"default" : 				{
					"accentcolor" : [ 0.0, 0.533333, 0.168627, 1.0 ]
				}
,
				"parentstyle" : "",
				"multi" : 0
			}
, 			{
				"name" : "sergioStyle",
				"default" : 				{
					"bgfillcolor" : 					{
						"angle" : 270.0,
						"color" : [ 0.290196, 0.309804, 0.301961, 1.0 ],
						"color1" : [ 0.376471, 0.384314, 0.4, 1.0 ],
						"color2" : [ 0.290196, 0.309804, 0.301961, 1.0 ],
						"proportion" : 0.39,
						"type" : "gradient"
					}

				}
,
				"comment" : 				{
					"fontname" : [ "Arial" ],
					"fontsize" : [ 8.0 ]
				}
,
				"message" : 				{
					"fontname" : [ "Arial" ],
					"fontsize" : [ 8.0 ]
				}
,
				"newobj" : 				{
					"fontname" : [ "Arial" ],
					"fontsize" : [ 8.0 ]
				}
,
				"number" : 				{
					"fontname" : [ "Arial" ],
					"fontsize" : [ 8.0 ]
				}
,
				"parentstyle" : "",
				"multi" : 0
			}
, 			{
				"name" : "sgm001",
				"default" : 				{
					"fontname" : [ "Verdana" ],
					"fontsize" : [ 9.0 ]
				}
,
				"parentstyle" : "",
				"multi" : 0
			}
, 			{
				"name" : "tastefulltoggle",
				"default" : 				{
					"bgcolor" : [ 0.185512, 0.263736, 0.260626, 1.0 ],
					"color" : [ 0.941176, 0.690196, 0.196078, 1.0 ]
				}
,
				"parentstyle" : "",
				"multi" : 0
			}
, 			{
				"name" : "tastefultoggle",
				"default" : 				{
					"bgcolor" : [ 0.287863, 0.333333, 0.329398, 1.0 ],
					"color" : [ 0.941176, 0.690196, 0.196078, 1.0 ],
					"elementcolor" : [ 0.654902, 0.572549, 0.376471, 1.0 ]
				}
,
				"parentstyle" : "",
				"multi" : 0
			}
 ],
		"bgcolor" : [ 0.235294117647059, 0.235294117647059, 0.235294117647059, 1.0 ]
	}

}
